<?xml version="1.0" encoding="UTF-8"?>
<svg width="511px" height="105px" viewBox="0 0 511 105" xmlns="http://www.w3.org/2000/svg" xmlns:xlink="http://www.w3.org/1999/xlink" version="1.1">
 <!-- Generated by Pixelmator Pro 2.0 -->
 <g id="1406537c-0869-470b-afb5-481b5d1d7847">
  <path id="Path" d="M125.972 70.877 L119.31 70.877 Q118.077 70.877 118.521 69.446 L129.426 27.9 Q129.919 26.469 131.498 26.469 L140.676 26.469 Q142.403 26.469 142.748 27.9 L153.653 69.446 Q154.097 70.877 152.814 70.877 L146.202 70.877 Q145.462 70.877 145.166 70.581 144.87 70.235 144.771 69.446 L142.797 61.847 129.327 61.847 127.403 69.446 Q127.255 70.235 126.958 70.581 126.662 70.877 125.972 70.877 Z M136.235 34.808 L135.988 34.808 131.005 54.791 141.218 54.791 Z M166.778 70.877 L160.906 70.877 Q159.475 70.877 159.475 69.446 L159.475 23.755 Q159.475 22.324 160.906 22.324 L166.778 22.324 Q168.258 22.324 168.258 23.755 L168.258 69.446 Q168.258 70.877 166.778 70.877 Z M176.942 43.245 L174.179 43.245 Q173.34 43.245 173.044 42.949 172.748 42.702 172.748 41.863 L172.748 37.077 Q172.748 35.646 174.179 35.646 L176.942 35.646 Q177.682 35.646 177.682 34.906 L177.682 28.344 Q177.682 26.863 179.212 26.863 L185.034 26.863 Q186.465 26.863 186.465 28.344 L186.465 34.906 Q186.465 35.646 187.304 35.646 L192.682 35.646 Q194.162 35.646 194.162 37.077 L194.162 41.863 Q194.162 42.604 193.817 42.949 193.521 43.245 192.682 43.245 L187.304 43.245 Q186.465 43.245 186.465 43.985 L186.465 59.281 Q186.465 61.403 187.452 62.34 188.389 63.278 190.61 63.278 L193.373 63.278 Q194.853 63.278 194.853 64.709 L194.853 69.495 Q194.853 70.235 194.508 70.581 194.212 70.877 193.373 70.877 L189.179 70.877 Q183.702 70.877 180.692 67.965 177.682 65.054 177.682 59.676 L177.682 43.985 Q177.682 43.245 176.942 43.245 Z M212.912 70.877 L211.284 70.877 Q205.807 70.877 202.847 67.965 199.886 65.054 199.886 59.627 L199.886 46.896 Q199.886 41.469 202.847 38.558 205.807 35.646 211.284 35.646 L227.222 35.646 Q228.751 35.646 228.751 37.077 L228.751 69.446 Q228.751 70.877 227.222 70.877 L221.449 70.877 Q219.968 70.877 219.968 69.446 L219.968 67.127 219.722 67.127 Q218.932 69.002 217.008 69.939 215.083 70.877 212.912 70.877 Z M219.968 58.048 L219.968 43.985 Q219.968 43.245 219.13 43.245 L212.666 43.245 Q210.445 43.245 209.557 44.183 208.669 45.12 208.669 47.34 L208.669 59.183 Q208.669 61.403 209.557 62.34 210.445 63.278 212.666 63.278 L215.232 63.278 Q219.968 63.278 219.968 58.048 Z M236.695 29.725 L236.695 23.706 Q236.695 22.324 238.077 22.324 L244.097 22.324 Q245.478 22.324 245.478 23.607 L245.478 29.725 Q245.478 31.107 244.097 31.107 L238.077 31.107 Q236.695 31.107 236.695 29.725 Z M236.695 69.446 L236.695 37.077 Q236.695 35.646 238.077 35.646 L243.998 35.646 Q245.478 35.646 245.478 37.077 L245.478 69.446 Q245.478 70.334 245.133 70.581 244.837 70.877 244.097 70.877 L238.126 70.877 Q236.695 70.877 236.695 69.446 Z M275.873 64.709 L275.873 69.495 Q275.873 70.235 275.528 70.581 275.232 70.877 274.393 70.877 L264.13 70.877 Q258.653 70.877 255.692 67.965 252.732 65.054 252.732 59.627 L252.732 46.896 Q252.732 41.469 255.692 38.558 258.653 35.646 264.13 35.646 L274.393 35.646 Q275.873 35.646 275.873 37.077 L275.873 41.863 Q275.873 42.604 275.528 42.949 275.232 43.245 274.393 43.245 L265.511 43.245 Q263.34 43.245 262.452 44.183 261.514 45.12 261.514 47.34 L261.514 59.183 Q261.514 61.403 262.452 62.34 263.34 63.278 265.511 63.278 L274.393 63.278 Q275.873 63.278 275.873 64.709 Z M294.179 70.877 L292.501 70.877 Q287.074 70.877 284.064 67.965 281.103 65.054 281.103 59.627 L281.103 46.896 Q281.103 41.469 284.064 38.558 287.074 35.646 292.501 35.646 L308.488 35.646 Q309.968 35.646 309.968 37.077 L309.968 69.446 Q309.968 70.877 308.488 70.877 L302.666 70.877 Q301.235 70.877 301.235 69.446 L301.235 67.127 300.939 67.127 Q300.199 69.002 298.225 69.939 296.301 70.877 294.179 70.877 Z M301.235 58.048 L301.235 43.985 Q301.235 43.245 300.396 43.245 L293.883 43.245 Q291.662 43.245 290.774 44.183 289.886 45.12 289.886 47.34 L289.886 59.183 Q289.886 61.403 290.774 62.34 291.662 63.278 293.883 63.278 L296.449 63.278 Q301.235 63.278 301.235 58.048 Z M343.028 63.278 L350.528 63.278 Q352.748 63.278 353.685 62.34 354.623 61.403 354.623 59.183 L354.623 38.113 Q354.623 35.942 353.685 35.005 352.748 34.067 350.528 34.067 L343.028 34.067 Q342.238 34.067 342.238 34.808 L342.238 62.538 Q342.238 63.278 343.028 63.278 Z M333.455 69.446 L333.455 27.9 Q333.455 26.469 334.935 26.469 L352.008 26.469 Q357.386 26.469 360.396 29.38 363.406 32.34 363.406 37.719 L363.406 59.627 Q363.406 65.005 360.396 67.916 357.386 70.877 352.008 70.877 L334.935 70.877 Q333.455 70.877 333.455 69.446 Z M371.35 29.725 L371.35 23.706 Q371.35 22.324 372.732 22.324 L378.702 22.324 Q380.083 22.324 380.083 23.607 L380.083 29.725 Q380.083 31.107 378.702 31.107 L372.732 31.107 Q371.35 31.107 371.35 29.725 Z M371.35 69.446 L371.35 37.077 Q371.35 35.646 372.732 35.646 L378.653 35.646 Q380.083 35.646 380.083 37.077 L380.083 69.446 Q380.083 70.334 379.787 70.581 379.491 70.877 378.702 70.877 L372.781 70.877 Q371.35 70.877 371.35 69.446 Z M400.462 69.298 L398.192 69.298 Q392.863 69.298 390.149 66.386 387.435 63.475 387.435 58.048 L387.435 46.896 Q387.435 41.469 390.396 38.558 393.357 35.646 398.833 35.646 L414.771 35.646 Q416.301 35.646 416.301 37.077 L416.301 71.173 Q416.301 76.551 413.291 79.462 410.281 82.324 404.903 82.324 L391.63 82.324 Q390.791 82.324 390.495 82.028 390.199 81.732 390.199 80.942 L390.199 76.206 Q390.199 74.725 391.63 74.725 L403.472 74.725 Q405.643 74.725 406.58 73.837 407.518 72.9 407.518 70.729 L407.518 65.498 407.271 65.498 Q406.482 67.373 404.557 68.311 402.633 69.298 400.462 69.298 Z M407.518 56.419 L407.518 43.985 Q407.518 43.245 406.679 43.245 L400.215 43.245 Q397.995 43.245 397.107 44.183 396.218 45.12 396.218 47.34 L396.218 57.604 Q396.218 59.824 397.107 60.712 397.995 61.6 400.215 61.6 L402.781 61.6 Q407.518 61.6 407.518 56.419 Z M424.245 29.725 L424.245 23.706 Q424.245 22.324 425.626 22.324 L431.646 22.324 Q433.028 22.324 433.028 23.607 L433.028 29.725 Q433.028 31.107 431.646 31.107 L425.626 31.107 Q424.245 31.107 424.245 29.725 Z M424.245 69.446 L424.245 37.077 Q424.245 35.646 425.626 35.646 L431.547 35.646 Q433.028 35.646 433.028 37.077 L433.028 69.446 Q433.028 70.334 432.732 70.581 432.386 70.877 431.646 70.877 L425.676 70.877 Q424.245 70.877 424.245 69.446 Z M441.712 43.245 L438.949 43.245 Q438.11 43.245 437.814 42.949 437.518 42.702 437.518 41.863 L437.518 37.077 Q437.518 35.646 438.949 35.646 L441.712 35.646 Q442.501 35.646 442.501 34.906 L442.501 28.344 Q442.501 26.863 443.982 26.863 L449.804 26.863 Q451.235 26.863 451.235 28.344 L451.235 34.906 Q451.235 35.646 452.074 35.646 L457.452 35.646 Q458.932 35.646 458.932 37.077 L458.932 41.863 Q458.932 42.604 458.587 42.949 458.291 43.245 457.452 43.245 L452.074 43.245 Q451.235 43.245 451.235 43.985 L451.235 59.281 Q451.235 61.403 452.222 62.34 453.208 63.278 455.38 63.278 L458.143 63.278 Q459.623 63.278 459.623 64.709 L459.623 69.495 Q459.623 70.235 459.278 70.581 458.982 70.877 458.143 70.877 L453.949 70.877 Q448.472 70.877 445.462 67.965 442.501 65.054 442.501 59.676 L442.501 43.985 Q442.501 43.245 441.712 43.245 Z M477.732 70.877 L476.054 70.877 Q470.577 70.877 467.616 67.965 464.656 65.054 464.656 59.627 L464.656 46.896 Q464.656 41.469 467.616 38.558 470.577 35.646 476.054 35.646 L491.991 35.646 Q493.521 35.646 493.521 37.077 L493.521 69.446 Q493.521 70.877 491.991 70.877 L486.218 70.877 Q484.738 70.877 484.738 69.446 L484.738 67.127 484.491 67.127 Q483.702 69.002 481.778 69.939 479.853 70.877 477.732 70.877 Z M484.738 58.048 L484.738 43.985 Q484.738 43.245 483.949 43.245 L477.435 43.245 Q475.215 43.245 474.327 44.183 473.439 45.12 473.439 47.34 L473.439 59.183 Q473.439 61.403 474.327 62.34 475.215 63.278 477.435 63.278 L480.001 63.278 Q484.738 63.278 484.738 58.048 Z M508.817 70.877 L502.945 70.877 Q501.465 70.877 501.465 69.446 L501.465 23.755 Q501.465 22.324 502.945 22.324 L508.817 22.324 Q510.248 22.324 510.248 23.755 L510.248 69.446 Q510.248 70.877 508.817 70.877 Z" fill="#ffffff" fill-opacity="1" stroke="none"/>
 </g>
 <g id="77d6de2f-084d-466f-ad71-5ead3fcab5aa">
  <path id="Path-1" d="M54.965 91.522 L45.036 91.522 38.992 89.329 36.618 91.123 37.821 92.392 C37.821 92.392 43.237 93.448 44.82 96.703 45.827 98.764 44.388 99.694 44.388 99.694 L48.705 101.887 50.001 105.276 51.296 101.888 55.613 99.695 C55.613 99.695 54.174 98.764 55.181 96.704 56.764 93.449 62.18 92.393 62.18 92.393 L63.383 91.124 61.009 89.33 Z M75.681 49.364 C75.681 49.364 74.663 48.667 74.123 49.763 74.123 49.763 74.432 52.013 75.681 50.788 75.681 50.788 76.482 49.663 75.681 49.364 Z M88.531 50.788 C87.776 50.118 84.753 52.355 84.753 52.355 83.908 55.214 78.33 58.151 76.89 58.867 78.815 57.996 87.02 54.848 87.02 54.848 90.149 53.353 88.531 50.788 88.531 50.788 Z M76.89 58.867 C76.775 58.917 76.662 58.972 76.551 59.032 76.551 59.032 76.675 58.973 76.89 58.867 Z M92.632 56.241 C91.014 61.123 87.02 59.828 87.02 59.828 85.508 62.32 81.407 61.722 81.407 61.722 90.365 67.603 92.632 56.241 92.632 56.241 Z M73.637 27.836 C73.853 24.148 65.975 21.956 65.975 21.956 62.844 21.857 57.341 20.262 57.341 20.262 L56.694 21.956 C58.42 23.351 65.168 26.341 65.168 26.341 67.381 25.843 73.637 27.836 73.637 27.836 Z M70.291 33.318 C70.291 33.318 73.861 33.318 73.64 36.407 73.64 36.407 75.363 29.232 61.44 28.135 L61.44 28.434 C61.441 28.434 68.996 33.417 70.291 33.318 Z M80.868 40.693 C80.868 40.693 80.22 39.796 79.411 34.414 79.411 34.414 74.717 38.4 73.636 37.005 73.636 37.005 74.715 40.094 71.91 43.881 71.91 43.881 74.608 42.685 76.551 39.596 76.551 39.596 79.394 39.026 75.193 44.381 75.194 44.381 78.494 43.683 80.868 40.693 Z" fill="#ffffff" fill-opacity="1" stroke="none"/>
  <path id="Path-2" d="M84.861 39.398 C84.861 39.398 88.208 43.983 86.157 45.278 86.157 45.278 85.509 46.649 84.43 46.811 84.43 46.811 85.358 47.77 84.786 48.667 84.786 48.667 90.366 44.58 91.445 52.355 91.445 52.355 91.014 47.57 91.445 45.976 91.445 45.976 92.2 42.163 95.223 50.149 95.223 50.149 97.813 63.717 93.604 69.996 93.604 69.996 98.569 65.61 99.001 47.97 99.001 47.97 98.351 34.503 93.172 42.588 93.172 42.588 88.746 45.678 88.423 41.492 88.423 41.492 88.314 38.103 89.934 38.701 89.934 38.701 92.955 37.804 91.662 35.313 91.662 35.313 84.74 25.546 82.751 27.838 82.751 27.836 85.833 37.504 84.861 39.398 Z M81.948 64.613 C84.539 68.401 87.021 68.7 87.021 68.7 88.855 68.599 89.394 64.613 89.394 64.613 85.403 67.303 81.948 64.613 81.948 64.613 Z M82.751 79.296 C82.751 79.296 76.911 74.978 75.833 73.981 L75.833 76.373 C75.833 76.373 80.365 78.1 81.409 80.958 81.409 80.958 83.315 82.751 84.682 81.29 84.682 81.29 85.613 74.84 87.267 73.012 86.341 73.768 84.462 75.626 82.751 79.296 Z M87.267 73.012 C87.631 72.714 87.847 72.586 87.847 72.586 87.644 72.659 87.451 72.807 87.267 73.012 Z" fill="#ffffff" fill-opacity="1" stroke="none"/>
  <path id="Path-3" d="M96.253 69.928 C96.253 69.928 87.331 71.921 78.695 69.662 78.695 69.662 87.546 72.652 90.64 72.719 90.64 72.719 94.022 74.512 92.079 77.502 92.079 77.502 96.684 79.429 99.202 78.034 99.203 78.034 94.886 73.45 96.253 69.928 Z M63.959 34.415 C65.254 36.707 62.88 37.504 62.88 37.504 61.513 37.637 59.498 34.415 59.498 34.415 60.361 37.371 63.311 39.398 63.311 39.398 62.637 42.073 65.167 45.544 65.167 45.544 64.647 44.615 65.167 39.099 65.167 39.099 67.31 36.441 63.959 34.415 63.959 34.415 Z M58.274 36.706 C58.274 35.311 53.742 32.271 53.742 32.271 54.03 34.214 52.951 35.378 52.951 35.378 54.534 35.644 57.555 41.823 57.555 41.823 58.131 41.358 55.684 37.238 55.684 37.238 55.469 35.245 58.274 36.706 58.274 36.706 Z M57.412 25.146 C55.541 25.146 52.303 19.763 52.303 19.763 51.296 26.275 57.412 25.146 57.412 25.146 Z M59.139 31.723 C59.139 31.723 60.074 32.255 60.29 33.185 60.29 33.185 60.074 29.796 59.066 29.664 59.066 29.664 59.425 29.199 59.857 28.867 59.857 28.867 56.619 29.066 53.31 26.608 L53.31 29.332 C53.31 29.332 59.138 31.723 58.922 33.65 58.922 33.65 59.139 32.52 59.139 31.723 Z M23.111 58.867 C23.325 58.974 23.45 59.032 23.45 59.032 23.339 58.972 23.226 58.917 23.111 58.867 Z M15.248 52.355 C15.248 52.355 12.225 50.118 11.47 50.788 11.47 50.788 9.852 53.353 12.981 54.847 12.981 54.847 21.186 57.995 23.111 58.865 21.671 58.149 16.092 55.214 15.248 52.355 Z M12.981 59.829 C12.981 59.829 8.988 61.125 7.368 56.242 7.368 56.242 9.635 67.604 18.594 61.724 18.594 61.723 14.492 62.32 12.981 59.829 Z M42.662 20.262 C42.662 20.262 37.157 21.857 34.028 21.956 34.028 21.956 26.148 24.148 26.364 27.836 26.364 27.836 32.619 25.842 34.834 26.34 34.834 26.34 41.582 23.35 43.309 21.955 Z M38.561 28.434 L38.561 28.135 C24.638 29.231 26.36 36.407 26.36 36.407 26.14 33.318 29.71 33.318 29.71 33.318 31.005 33.417 38.561 28.434 38.561 28.434 Z M23.45 39.597 C25.392 42.686 28.091 43.882 28.091 43.882 25.286 40.095 26.365 37.006 26.365 37.006 25.286 38.401 20.591 34.415 20.591 34.415 19.781 39.797 19.134 40.694 19.134 40.694 21.508 43.684 24.808 44.382 24.808 44.382 20.608 39.027 23.45 39.597 23.45 39.597 Z" fill="#ffffff" fill-opacity="1" stroke="none"/>
  <path id="Path-4" d="M6.397 69.995 C2.187 63.717 4.777 50.148 4.777 50.148 7.8 42.162 8.555 45.975 8.555 45.975 8.986 47.57 8.555 52.354 8.555 52.354 9.634 44.579 15.214 48.666 15.214 48.666 14.642 47.769 15.57 46.81 15.57 46.81 14.491 46.649 13.843 45.277 13.843 45.277 11.793 43.982 15.138 39.397 15.138 39.397 14.166 37.503 17.249 27.836 17.249 27.836 15.26 25.543 8.338 35.311 8.338 35.311 7.043 37.803 10.064 38.699 10.064 38.699 11.683 38.102 11.575 41.49 11.575 41.49 11.251 45.676 6.826 42.586 6.826 42.586 1.647 34.502 0.998 47.968 0.998 47.968 1.432 65.609 6.397 69.995 6.397 69.995 Z M12.981 68.7 C12.981 68.7 15.463 68.401 18.054 64.613 18.054 64.613 14.601 67.303 10.608 64.613 10.607 64.613 11.146 68.599 12.981 68.7 Z M12.154 72.586 C12.154 72.586 12.371 72.713 12.734 73.012 12.55 72.807 12.356 72.659 12.154 72.586 Z M12.734 73.012 C14.388 74.84 15.319 81.29 15.319 81.29 16.686 82.751 18.594 80.958 18.594 80.958 19.636 78.1 24.17 76.373 24.17 76.373 L24.17 73.981 C23.09 74.978 17.251 79.296 17.251 79.296 15.539 75.626 13.659 73.768 12.734 73.012 Z" fill="#ffffff" fill-opacity="1" stroke="none"/>
  <path id="Path-5" d="M3.749 69.928 C5.115 73.45 0.798 78.034 0.798 78.034 3.316 79.429 7.922 77.502 7.922 77.502 5.98 74.512 9.36 72.719 9.36 72.719 12.454 72.652 21.305 69.662 21.305 69.662 12.67 71.922 3.749 69.928 3.749 69.928 Z M36.689 39.398 C36.689 39.398 39.639 37.371 40.502 34.415 40.502 34.415 38.487 37.637 37.12 37.504 37.12 37.504 34.746 36.707 36.041 34.415 36.041 34.415 32.69 36.441 34.833 39.099 34.833 39.099 35.353 44.613 34.833 45.544 34.834 45.543 37.364 42.073 36.689 39.398 Z M42.445 41.823 C42.445 41.823 45.467 35.644 47.05 35.378 47.05 35.378 45.971 34.214 46.259 32.271 46.259 32.271 41.726 35.311 41.726 36.706 41.726 36.706 44.532 35.244 44.317 37.238 44.317 37.238 41.87 41.358 42.445 41.823 Z M47.698 19.764 C47.698 19.764 44.46 25.147 42.589 25.147 42.589 25.146 48.705 26.275 47.698 19.764 Z" fill="#ffffff" fill-opacity="1" stroke="none"/>
  <path id="Path-6" d="M31.077 10.86 C36.402 7.937 41.726 8.866 41.726 8.866 43.524 10.062 45.199 7.87 45.199 7.87 48.529 6.541 48.849 9.133 48.849 9.133 47.121 12.854 45.755 12.123 45.755 12.123 43.165 9.93 42.589 11.06 42.589 11.06 41.581 12.255 39.711 12.522 39.711 12.522 31.724 13.186 25.68 21.292 25.68 21.292 27.623 21.292 43.309 14.647 43.309 14.647 47.482 12.787 49.209 18.236 49.209 18.236 47.626 22.754 50.001 25.221 50.001 25.221 50.001 25.221 52.375 22.754 50.792 18.236 50.792 18.236 52.519 12.787 56.693 14.647 56.693 14.647 72.379 21.292 74.32 21.292 74.32 21.292 68.277 13.186 60.29 12.522 60.29 12.522 58.419 12.255 57.412 11.06 57.412 11.06 56.837 9.93 54.246 12.123 54.246 12.123 52.879 12.854 51.152 9.133 51.152 9.133 51.472 6.541 54.802 7.87 54.802 7.87 56.477 10.063 58.275 8.866 58.275 8.866 63.6 7.936 68.925 10.86 68.925 10.86 78.373 14.515 82.751 13.783 82.751 13.783 72.881 11.99 71.084 10.594 71.084 10.594 74.321 9.171 75.329 7.49 75.329 7.49 72.955 9.597 68.925 8.068 68.925 8.068 54.102 3.019 50.001 7.869 45.899 3.02 31.077 8.069 31.077 8.069 27.048 9.597 24.673 7.491 24.673 7.491 25.68 9.171 28.918 10.595 28.918 10.595 27.12 11.99 17.251 13.785 17.251 13.785 21.628 14.515 31.077 10.86 31.077 10.86 Z M50.001 2.555 C50.001 2.555 56.044 2.355 58.275 3.087 58.275 3.087 51.8 0.828 50.001 0.628 48.202 0.828 41.726 3.087 41.726 3.087 43.957 2.355 50.001 2.555 50.001 2.555 Z M46.69 29.332 L46.69 26.608 C43.381 29.066 40.143 28.867 40.143 28.867 40.575 29.199 40.934 29.664 40.934 29.664 39.927 29.796 39.711 33.185 39.711 33.185 39.927 32.256 40.862 31.723 40.862 31.723 40.862 32.52 41.078 33.65 41.078 33.65 40.863 31.723 46.69 29.332 46.69 29.332 Z M82.241 49.773 C82.349 48.378 83.752 47.78 83.752 47.78 81.679 47.274 79.895 47.06 78.361 47.047 78.686 47.063 79.327 48.777 79.327 48.777 79.975 54.756 74.578 54.957 74.578 54.957 71.449 55.255 70.262 51.767 70.262 51.767 70.645 49.858 71.773 48.711 73.071 48.023 70.65 49.097 69.83 50.67 69.83 50.67 66.159 53.261 66.59 59.042 66.59 59.042 67.454 57.149 68.641 58.244 68.641 58.244 69.83 61.035 70.908 60.936 70.908 60.936 72.31 59.042 70.584 57.647 70.584 57.647 69.721 55.653 72.419 56.052 72.419 56.052 79.65 58.743 82.241 49.773 82.241 49.773 Z M25.044 49.364 C25.044 49.364 26.062 48.667 26.601 49.763 26.601 49.763 26.293 52.013 25.044 50.788 25.044 50.788 24.243 49.663 25.044 49.364 Z" fill="#ffffff" fill-opacity="1" stroke="none"/>
  <path id="Path-7" d="M18.484 49.773 C18.376 48.378 16.973 47.78 16.973 47.78 19.045 47.274 20.83 47.06 22.363 47.047 22.039 47.063 21.397 48.777 21.397 48.777 20.749 54.756 26.146 54.957 26.146 54.957 29.275 55.255 30.463 51.767 30.463 51.767 30.08 49.858 28.952 48.711 27.654 48.023 30.074 49.097 30.895 50.67 30.895 50.67 34.566 53.261 34.134 59.042 34.134 59.042 33.271 57.149 32.083 58.244 32.083 58.244 30.895 61.035 29.817 60.936 29.817 60.936 28.415 59.042 30.14 57.647 30.14 57.647 31.004 55.653 28.306 56.052 28.306 56.052 21.074 58.743 18.484 49.773 18.484 49.773 Z" fill="#ffffff" fill-opacity="1" stroke="none"/>
 </g>
</svg>
